name rise49.5252peak65.1548fall88.8305.mot
datacolumns 19
datarows 17
range 11.49994900000000 11.52661400000000
endheader
time	ground_force1_vx	ground_force1_vy	ground_force1_vz	ground_force1_px	ground_force1_py	ground_force1_pz	ground_force2_vx	ground_force2_vy	ground_force2_vz	ground_force2_px	ground_force2_py	ground_force2_pz	ground_torque1_x	ground_torque1_y	ground_torque1_z	ground_torque2_x	ground_torque2_y	ground_torque2_z	
11.49994900000000	-46.36654700000000	815.52133700000002	63.09682700000000	0.19472000000000	0.00000000000000	0.10420400000000	-1.47448500000000	3.93043800000000	1.48464200000000	0.00000000000000	0.00000000000000	0.00000000000000	0.00000000000000	34.21959200000000	0.00000000000000	0.00000000000000	0.60506500000000	0.00000000000000	
11.50161600000000	-46.91881800000000	814.08091100000001	63.12327600000000	0.19392300000000	0.00000000000000	0.10420400000000	-2.38836500000000	7.39754400000000	2.52051900000000	0.00000000000000	0.00000000000000	0.00000000000000	0.00000000000000	34.17539200000000	0.00000000000000	0.00000000000000	1.03456000000000	0.00000000000000	
11.50328400000000	-47.48825700000000	812.52584600000000	63.13035400000000	0.19311800000000	0.00000000000000	0.10420300000000	-3.42792500000000	11.56263400000000	3.72283500000000	0.00000000000000	0.00000000000000	0.00000000000000	0.00000000000000	34.12745500000000	0.00000000000000	0.00000000000000	1.53451900000000	0.00000000000000	
11.50494700000000	-48.07512700000000	810.85397200000000	63.11732000000000	0.19230400000000	0.00000000000000	0.10419900000000	-4.56331700000000	16.37482700000000	5.06427300000000	0.00000000000000	0.00000000000000	0.00000000000000	0.00000000000000	34.07572800000000	0.00000000000000	0.00000000000000	2.09404700000000	0.00000000000000	
11.50661600000000	-48.67960800000000	809.06309599999997	63.08344900000000	0.19148100000000	0.00000000000000	0.10419300000000	-5.75674900000000	21.75172000000000	6.50824000000000	0.00000000000000	0.00000000000000	0.00000000000000	0.00000000000000	34.02015800000000	0.00000000000000	0.00000000000000	2.69839900000000	0.00000000000000	
11.50829100000000	-49.30179500000000	807.15101300000003	63.02802900000000	0.19065000000000	0.00000000000000	0.10418400000000	-6.96493800000000	27.58551100000000	8.01129200000000	0.42343500000000	0.00000000000000	-0.07494800000000	0.00000000000000	33.96068500000000	0.00000000000000	0.00000000000000	6.20022700000000	0.00000000000000	
11.50994700000000	-49.94169200000000	805.11550199999999	62.95037100000000	0.18980900000000	0.00000000000000	0.10417300000000	-8.14226300000000	33.75193300000000	9.52636300000000	0.42654000000000	0.00000000000000	-0.07593500000000	0.00000000000000	33.89724300000000	0.00000000000000	0.00000000000000	7.41470700000000	0.00000000000000	
11.51161500000000	-50.59921300000000	802.95433100000002	62.84980300000000	0.18896100000000	0.00000000000000	0.10415900000000	-9.24418200000000	40.12080300000000	11.00637800000000	0.42926100000000	0.00000000000000	-0.07687200000000	0.00000000000000	33.82976500000000	0.00000000000000	0.00000000000000	8.61212300000000	0.00000000000000	
11.51328500000000	-51.27417600000000	800.66525799999999	62.72568000000000	0.18810400000000	0.00000000000000	0.10414200000000	-10.23046500000000	46.56671600000000	12.40775200000000	0.43165900000000	0.00000000000000	-0.07776400000000	0.00000000000000	33.75817700000000	0.00000000000000	0.00000000000000	9.75806400000000	0.00000000000000	
11.51495300000000	-51.96630400000000	798.24603600000000	62.57738200000000	0.18723900000000	0.00000000000000	0.10412200000000	-11.06782000000000	52.97844000000000	13.69332100000000	0.43378600000000	0.00000000000000	-0.07861600000000	0.00000000000000	33.68240000000000	0.00000000000000	0.00000000000000	10.82296400000000	0.00000000000000	
11.51661800000000	-52.67522200000000	795.69441600000005	62.40431800000000	0.18636700000000	0.00000000000000	0.10410000000000	-11.73167400000000	59.26604500000000	14.83442100000000	0.43568300000000	0.00000000000000	-0.07943200000000	0.00000000000000	33.60235100000000	0.00000000000000	0.00000000000000	11.78378800000000	0.00000000000000	
11.51828700000000	-53.40045500000000	793.00815100000000	62.20592800000000	0.18548800000000	0.00000000000000	0.10407300000000	-12.20698400000000	65.36527500000000	15.81197800000000	0.43738700000000	0.00000000000000	-0.08021600000000	0.00000000000000	33.51793900000000	0.00000000000000	0.00000000000000	12.62494900000000	0.00000000000000	
11.51995400000000	-54.14142900000000	790.18499999999995	61.98168400000000	0.18460200000000	0.00000000000000	0.10404400000000	-12.48815900000000	71.23913100000000	16.61665600000000	0.43892700000000	0.00000000000000	-0.08097000000000	0.00000000000000	33.42907000000000	0.00000000000000	0.00000000000000	13.33847400000000	0.00000000000000	
11.52161400000000	-54.89746700000000	787.22273399999995	61.73109600000000	0.18371000000000	0.00000000000000	0.10401100000000	-12.57822400000000	76.87695500000000	17.24818100000000	0.44032900000000	0.00000000000000	-0.08169800000000	0.00000000000000	33.33564400000000	0.00000000000000	0.00000000000000	13.92350700000000	0.00000000000000	
11.52328100000000	-55.66779000000000	784.11913800000002	61.45371100000000	0.18281300000000	0.00000000000000	0.10397400000000	-12.48740700000000	82.29149500000000	17.71403500000000	0.44161300000000	0.00000000000000	-0.08240100000000	0.00000000000000	33.23755400000000	0.00000000000000	0.00000000000000	14.38532500000000	0.00000000000000	
11.52495500000000	-56.45151600000000	780.87202100000002	61.14911500000000	0.18191200000000	0.00000000000000	0.10393400000000	-12.23138500000000	87.51455000000000	18.02774100000000	0.44279700000000	0.00000000000000	-0.08308100000000	0.00000000000000	33.13469000000000	0.00000000000000	0.00000000000000	14.73401000000000	0.00000000000000	
11.52661400000000	-57.24766200000000	777.47921899999994	60.81694000000000	0.18100600000000	0.00000000000000	0.10389000000000	-11.82938000000000	92.59180100000000	18.20694600000000	0.44389600000000	0.00000000000000	-0.08374000000000	0.00000000000000	33.02693400000000	0.00000000000000	0.00000000000000	14.98296300000000	0.00000000000000	
